<?xml version="1.0" encoding="utf-8"?>
<svg xmlns="http://www.w3.org/2000/svg" style="margin: auto; background: rgb(255, 255, 255); display: block; shape-rendering: auto; animation-play-state: running; animation-delay: 0s;" width="125" height="32" preserveAspectRatio="xMidYMid">
  <style type="text/css" style="animation-play-state: running; animation-delay: 0s;">
  text {
    text-anchor: middle; font-size: 21px; opacity: 0;
  }
</style>
  <g style="transform-origin: 62.5px 16px; transform: scale(1); animation-play-state: running; animation-delay: 0s;">
    <g transform="translate(62.5,16)" style="animation-play-state: running; animation-delay: 0s;">
      <g transform="translate(0,0)" style="animation-play-state: running; animation-delay: 0s;">
        <g class="path" style="opacity: 1; transform-origin: -51.01px -1.8553px; animation: 4s linear -2.31s infinite normal forwards running blink-250a5b87-d8e5-4820-ba42-c9da6d10a961;">
          <path d="M3.47-7.26L3.47-1.45L11.49-1.45L11.49 0L1.77 0L1.77-15.54L11.38-15.54L11.38-14.09L3.47-14.09L3.47-8.69L10.36-8.69L10.36-7.26L3.47-7.26" fill="#d74946" stroke="none" stroke-width="none" transform="translate(-57.6400146484375,5.914697303771972)" style="fill: rgb(215, 73, 70); animation-play-state: running; animation-delay: 0s;"></path>
        </g>
        <g class="path" style="opacity: 1; transform-origin: -38.325px -1.8553px; animation: 4s linear -1.98s infinite normal forwards running blink-250a5b87-d8e5-4820-ba42-c9da6d10a961;">
          <path d="M26.09 0L24.36 0L22.59-5.03L16.02-5.03L14.25 0L12.54 0L18.11-15.54L20.52-15.54L26.09 0zM19.30-14.30L16.53-6.47L22.07-6.47L19.30-14.30" fill="#d74946" stroke="none" stroke-width="none" transform="translate(-57.6400146484375,5.914697303771972)" style="fill: rgb(0, 105, 206); animation-play-state: running; animation-delay: 0s;"></path>
        </g>
        <g class="path" style="opacity: 1; transform-origin: -25.07px -1.8553px; animation: 4s linear -1.65s infinite normal forwards running blink-250a5b87-d8e5-4820-ba42-c9da6d10a961;">
          <path d="M33.42 0L31.71 0L31.71-14.05L26.54-14.05L26.54-15.54L38.60-15.54L38.60-14.05L33.42-14.05L33.42 0" fill="#d74946" stroke="none" stroke-width="none" transform="translate(-57.6400146484375,5.914697303771972)" style="fill: rgb(240, 175, 49); animation-play-state: running; animation-delay: 0s;"></path>
        </g>
        <g class="path" style="opacity: 1; transform-origin: -4.53002px -1.8553px; animation: 4s linear -1.32s infinite normal forwards running blink-250a5b87-d8e5-4820-ba42-c9da6d10a961;">
          <path d="M53.14-3.87L58.51-15.54L60.53-15.54L60.53 0L58.93 0L58.93-13.01L53.88-2.15L52.34-2.15L47.29-12.88L47.29 0L45.69 0L45.69-15.54L47.71-15.54L53.14-3.87" fill="#d74946" stroke="none" stroke-width="none" transform="translate(-57.6400146484375,5.914697303771972)" style="fill: rgb(148, 178, 36); animation-play-state: running; animation-delay: 0s;"></path>
        </g>
        <g class="path" style="opacity: 1; transform-origin: 12.15px -1.7553px; animation: 4s linear -0.99s infinite normal forwards running blink-250a5b87-d8e5-4820-ba42-c9da6d10a961;">
          <path d="M69.80 0.20L69.80 0.20Q67.82 0.20 66.55-0.45L66.55-0.45L66.55-0.45Q65.28-1.10 64.66-2.44L64.66-2.44L64.66-2.44Q64.05-3.78 64.05-5.88L64.05-5.88L64.05-15.54L65.75-15.54L65.75-5.69L65.75-5.69Q65.75-3.39 66.73-2.33L66.73-2.33L66.73-2.33Q67.70-1.27 69.80-1.27L69.80-1.27L69.80-1.27Q71.90-1.27 72.88-2.33L72.88-2.33L72.88-2.33Q73.86-3.39 73.86-5.69L73.86-5.69L73.86-15.54L75.53-15.54L75.53-5.88L75.53-5.88Q75.53-3.78 74.92-2.44L74.92-2.44L74.92-2.44Q74.31-1.10 73.05-0.45L73.05-0.45L73.05-0.45Q71.79 0.20 69.80 0.20L69.80 0.20" fill="#d74946" stroke="none" stroke-width="none" transform="translate(-57.6400146484375,5.914697303771972)" style="fill: rgb(215, 73, 70); animation-play-state: running; animation-delay: 0s;"></path>
        </g>
        <g class="path" style="opacity: 1; transform-origin: 27.09px -1.8553px; animation: 4s linear -0.66s infinite normal forwards running blink-250a5b87-d8e5-4820-ba42-c9da6d10a961;">
          <path d="M90.46 0L88.54 0L83.00-7.20L80.70-7.20L80.70 0L79.00 0L79.00-15.54L80.70-15.54L80.70-8.74L83.03-8.74L88.15-15.54L90.02-15.54L84.33-8.00L90.46 0" fill="#d74946" stroke="none" stroke-width="none" transform="translate(-57.6400146484375,5.914697303771972)" style="fill: rgb(0, 105, 206); animation-play-state: running; animation-delay: 0s;"></path>
        </g>
        <g class="path" style="opacity: 1; transform-origin: 40.08px -1.8553px; animation: 4s linear -0.33s infinite normal forwards running blink-250a5b87-d8e5-4820-ba42-c9da6d10a961;">
          <path d="M103.45 0L101.52 0L95.99-7.20L93.69-7.20L93.69 0L91.99 0L91.99-15.54L93.69-15.54L93.69-8.74L96.02-8.74L101.14-15.54L103.01-15.54L97.31-8.00L103.45 0" fill="#d74946" stroke="none" stroke-width="none" transform="translate(-57.6400146484375,5.914697303771972)" style="fill: rgb(240, 175, 49); animation-play-state: running; animation-delay: 0s;"></path>
        </g>
        <g class="path" style="opacity: 1; transform-origin: 52.635px -1.8553px; animation: 4s linear 0s infinite normal forwards running blink-250a5b87-d8e5-4820-ba42-c9da6d10a961;">
          <path d="M117.05 0L115.32 0L113.55-5.03L106.98-5.03L105.21 0L103.50 0L109.07-15.54L111.48-15.54L117.05 0zM110.26-14.30L107.49-6.47L113.03-6.47L110.26-14.30" fill="#d74946" stroke="none" stroke-width="none" transform="translate(-57.6400146484375,5.914697303771972)" style="fill: rgb(148, 178, 36); animation-play-state: running; animation-delay: 0s;"></path>
        </g>
      </g>
    </g>
  </g>
  <style id="blink-250a5b87-d8e5-4820-ba42-c9da6d10a961" data-anikit="">@keyframes blink-250a5b87-d8e5-4820-ba42-c9da6d10a961 {
  0% { opacity: 1; }
  49.75% { opacity: 1; }
  50.25% { opacity: 0; }
  99.5% { opacity: 0; }
  100% { opacity: 1; }
}</style>
</svg>